<svg xmlns="http://www.w3.org/2000/svg" version="1.1" viewBox="-5.0 -10.0 110.0 135.0">
    <path d="m69.02 91.648h-54.297c-2.3516 0-4.2734-1.918-4.2734-4.2734l0.003906-74.004c0-2.3516 1.918-4.2734 4.2734-4.2734h1.8867l-0.003906-1.6992c0-2.3555 1.918-4.2734 4.2734-4.2734l44.137 0.003906c0.27344 0 0.51953 0.12109 0.6875 0.31641l14.93 14.836c0.19531 0.16797 0.32031 0.41406 0.32031 0.69141 0 0.10156-0.015625 0.19922-0.046875 0.28906v40.289c0.54297-0.089843 1.1133 0.019531 1.6055 0.30859 0.76562 0.44141 1.2305 1.2422 1.2305 2.125v1.6914c0 0.10156 0.085937 0.1875 0.1875 0.1875h1.625c0.89062 0 1.6797 0.46094 2.125 1.2305 0.45703 0.79297 0.45312 1.7266-0.027344 2.5039l-0.81641 1.418c-0.074219 0.12891 0.015625 0.22656 0.11719 0.29297 0.86328 0.53516 1.8594 0.88281 2.2969 1.7422 0.39062 0.76953 0.40234 1.6523-0.035156 2.3984-0.21094 0.36328-0.51562 0.66797-0.90625 0.89453l-1.4648 0.84375c-0.089844 0.050781-0.12109 0.17188-0.070312 0.25781l0.84766 1.4688c0.40234 0.78906 0.42188 1.6211-0.035156 2.3945-0.22266 0.38281-0.52734 0.6875-0.89453 0.89844-0.36719 0.21484-0.78906 0.32812-1.2305 0.32812h-1.6914c-0.10156 0-0.1875 0.085938-0.1875 0.1875v1.625c0 0.89062-0.46094 1.6797-1.2305 2.125-0.23047 0.13281-0.46875 0.22656-0.71875 0.28125v10.113c0 1.7227-2.0391 2.6016-3.0508 1.5664l-3.2617-3.3359-3.2617 3.3359c-1.0117 1.0352-3.0469 0.15234-3.0469-1.5664zm-27.391-61.594h0.03125v0.003906c1.3516 0 2.918 0.75781 2.9258 2.0195l-0.003907-0.003906c0 0.50781-0.29297 0.98438-0.76953 1.3438-1.8945 1.4336-5.1211 0.39453-5.1406-1.3516-0.003906-0.5-0.41406-0.90234-0.91016-0.89844-0.5 0.003906-0.90234 0.41016-0.89844 0.91016 0.019531 2 1.8242 3.4102 3.7773 3.7422l-0.011719 1c-0.015625 1.1914 1.793 1.2109 1.8086 0.019532l0.011719-0.99219c2.0273-0.28125 3.9492-1.6992 3.9492-3.7773h-0.003907c-0.007812-2.3398-2.3711-3.832-4.7344-3.832v0.003907h-0.0625v-0.003907c-1.3516 0-2.918-0.75781-2.9258-2.0195h0.003906c0-0.50781 0.29297-0.98438 0.76953-1.3438 1.8945-1.4336 5.1211-0.39453 5.1406 1.3516 0.003906 0.5 0.41016 0.89844 0.91016 0.89844 0.5-0.003906 0.90234-0.41016 0.89844-0.91016-0.019531-2-1.8242-3.4102-3.7773-3.7422l0.011718-1c0.015625-1.1914-1.793-1.2109-1.8086-0.019531l-0.011718 0.99609c-2.0273 0.28125-3.9492 1.6992-3.9492 3.7773h0.003906c0.007813 2.3438 2.375 3.832 4.7344 3.832v-0.003906zm34.562 37.059c-0.26953-0.83203-1.4531-0.83594-1.7227 0l-0.83984 2.5977-2.6641-0.003907c-0.96484-0.035156-1.2969 1.1289-0.59766 1.6367l2.2109 1.6016-0.84766 2.5938h0.003906c-0.26953 0.82813 0.68359 1.5234 1.3906 1.0078l2.207-1.6094 2.1523 1.5703c0.76172 0.60156 1.7148-0.14844 1.4492-0.96875l-0.84766-2.5938 2.2109-1.6016v-0.003906c0.70703-0.51172 0.34375-1.6367-0.53125-1.6367l-2.7305 0.003906zm-0.67969 3.7812-0.17969-0.55859-0.17969 0.55859c-0.23047 0.71875-0.90625 0.62891-1.4492 0.625l0.47656 0.34375c0.61328 0.44141 0.31641 1.0586 0.14453 1.5742 0.43359-0.31641 0.92969-0.78906 1.5391-0.34766l0.47656 0.34766c-0.16797-0.51562-0.46484-1.1328 0.14453-1.5742l0.47656-0.34375c-0.54297 0-1.2188 0.09375-1.4492-0.625zm-0.17969-7.1953c-4.6484 0-8.418 3.7695-8.418 8.418 0 4.6484 3.7695 8.418 8.418 8.418 4.6484 0 8.418-3.7695 8.418-8.418-0.003906-4.6523-3.7695-8.418-8.418-8.418zm4.668 3.7461c-2.5781-2.5781-6.7578-2.5781-9.3359 0-2.5781 2.5781-2.5781 6.7578 0 9.3359 2.5781 2.5781 6.7578 2.5781 9.3359 0 2.5781-2.5742 2.5781-6.7578 0-9.3359zm0.52734-5.7734-0.91797 0.53125v-0.003906c-0.99609 0.57422-2.0938 0.30859-2.7539-0.65234l-0.027344-0.050781-0.84766-1.4648c-0.25-0.43359-0.86719-0.43359-1.1172 0l-0.875 1.5039c-0.66406 0.94141-1.8398 1.1719-2.7422 0.59375l-1.3945-0.80469c-0.20703-0.11719-0.4375-0.11719-0.64453 0-0.21484 0.125-0.32031 0.30859-0.32031 0.55859v1.625c0 1.1055-0.89844 2.0039-2.0039 2.0039h-1.6914c-0.125 0-0.23438 0.027343-0.32422 0.078125l-0.23438 0.24219c-0.11719 0.20703-0.11719 0.44141 0.003907 0.64844l0.8125 1.4023c0.55469 0.95703 0.22656 2.1797-0.73047 2.7344l-1.4648 0.84766c-0.10547 0.0625-0.19141 0.14453-0.24219 0.23438h-0.003907c-0.15625 0.27344-0.10156 0.68359 0.24609 0.88281l1.4102 0.80859c0.95703 0.55469 1.2852 1.7695 0.73047 2.7266l-0.85156 1.4766c-0.11719 0.20703-0.11719 0.4375 0 0.64453 0.125 0.21094 0.30859 0.32031 0.55859 0.32031h1.625c1.1055 0 2.0039 0.89844 2.0039 2.0039v1.6914c0 0.54297 0.56641 0.79297 0.96484 0.55859l1.4062-0.8125c0.95703-0.55469 2.1797-0.22656 2.7344 0.73047l0.34766 0.60547c0.1875 0.32422 0.49219 0.96484 0.73438 1.1016 0.1875 0.10547 0.46484 0.10547 0.64844 0v0.003906c0.23047-0.13672 0.53516-0.76953 0.71484-1.0742 0.39844-0.69141 0.66406-1.2734 1.5469-1.5078 0.49219-0.13281 1.0469-0.070313 1.5195 0.19922l1.582 0.90234c0.19141 0.054687 0.33203 0.054687 0.52734-0.054688 0.21484-0.125 0.32031-0.30859 0.32031-0.55859v-1.625c0-1.1055 0.89844-2.0039 2.0039-2.0039h1.6914c0.125 0 0.23438-0.027344 0.32422-0.078125v0.003906l0.23438-0.24609c0.11719-0.20313 0.11719-0.44141 0-0.64453l-0.8125-1.4062c-0.55469-0.95703-0.22656-2.1797 0.73047-2.7344v0.003907l1.4688-0.84766c0.10547-0.058593 0.18359-0.14062 0.23828-0.23438 0.15625-0.27344 0.097656-0.6875-0.24219-0.88281l-1.4805-0.85547c-0.95703-0.64453-1.2031-1.8477-0.61719-2.7617l0.80469-1.3945c0.11719-0.20703 0.11719-0.4375 0-0.64453h0.003906c-0.125-0.21484-0.30859-0.32031-0.55859-0.32031h-1.625c-1.1055 0-2.0039-0.89844-2.0039-2.0039v-1.6914c0-0.25391-0.10156-0.43359-0.32031-0.55859-0.40625-0.23438-0.71094 0.03125-1.0898 0.25zm-1.4336-1.2617v-40.535h-14.027v-0.003906c-0.5 0-0.90234-0.40625-0.90234-0.90234l-0.042968-14.027h-43.238c-1.3516 0-2.457 1.1055-2.457 2.457v74.004c0 1.3516 1.1055 2.457 2.457 2.457h46.629c-0.38672-0.44141-0.59766-1.0117-0.59766-1.6094v-1.6914c0-0.10156-0.085937-0.1875-0.1875-0.1875h-1.625c-0.89062 0-1.6758-0.45312-2.125-1.2305-0.45703-0.79297-0.45312-1.7266 0.027344-2.5039l0.82031-1.418c0.070312-0.12891-0.015625-0.22656-0.11719-0.28906l-1.3594-0.78516v0.003907c-1.1953-0.69141-1.5742-2.2109-0.89844-3.3555 0.21875-0.37891 0.54688-0.70312 0.95312-0.92188l1.418-0.81641c0.13281-0.078126 0.10156-0.20703 0.042969-0.30859-0.48047-0.89844-1.1211-1.6328-1.1211-2.5859 0-0.41016 0.11328-0.84375 0.33984-1.2266 0.22266-0.38281 0.52734-0.6875 0.89453-0.89844 0.36719-0.21094 0.78906-0.32812 1.2305-0.32812h1.6914c0.10156 0 0.1875-0.085937 0.1875-0.1875v-1.625c0-0.89062 0.46094-1.6797 1.2305-2.125l-0.015625-0.007812c0.79297-0.45703 1.7266-0.44922 2.5039 0.027343l1.418 0.81641c0.085938 0.050781 0.21094 0.019531 0.26172-0.070313l0.8125-1.4062c0.96875-1.6758 3.3828-1.6133 4.2773 0.050782l0.78906 1.3672h0.003907c0.17187 0.25781 0.26172 0.13281 0.72656-0.13672zm-8.2578 23.832v10.617l0.074218 0.16406 3.3008-3.3789 0.003906 0.003907c0.61719-0.61328 1.6367-0.60156 2.25 0.007812l-0.003906 0.003906 3.2891 3.3672 0.074219-0.16406v-10.438l-1.4062-0.8125c-0.070313-0.035156-0.19531-0.003906-0.24219 0.078125l-0.33594 0.57812h0.003906c-0.39062 0.67969-0.66797 1.3242-1.375 1.7305-1.1641 0.67188-2.6641 0.29297-3.3555-0.90625l-0.49609-0.85547h-0.003907c-0.125-0.21484-0.32812-0.65625-0.46484-0.69141-0.050782-0.011719-0.10156-0.007813-0.14453 0.015625zm-1.8164 1.4336h-48.137c-2.3555 0-4.2734-1.918-4.2734-4.2734v-70.488h-1.8867c-1.3516 0-2.457 1.1055-2.457 2.457v74.004c0 1.3516 1.1055 2.457 2.457 2.457h54.297zm-43.461-8.5977h20.668c1.1953 0 1.1953-1.8164 0-1.8164h-20.668c-1.1953 0-1.1953 1.8164 0 1.8164zm23.996 0h8.3711c1.1953 0 1.1953-1.8164 0-1.8164h-8.3711c-1.1953 0-1.1953 1.8164 0 1.8164zm-23.996-5.4023h13.633c1.1953 0 1.1953-1.8164 0-1.8164l-13.633 0.003906c-1.1953 0-1.1953 1.8125 0 1.8125zm16.953 0h15.414c1.1953 0 1.1953-1.8164 0-1.8164l-15.414 0.003906c-1.1953 0-1.1953 1.8125 0 1.8125zm-16.953-5.3555h20.301c1.1953 0 1.1953-1.8164 0-1.8164h-20.301c-1.1953 0.003906-1.1953 1.8164 0 1.8164zm24.238 0h8.1289c1.1953 0 1.1953-1.8164 0-1.8164h-8.1289c-1.1953 0.003906-1.1953 1.8164 0 1.8164zm-24.238-5.3984h9.1719c1.1953 0 1.1953-1.8164 0-1.8164h-9.1719c-1.1953 0-1.1953 1.8164 0 1.8164zm13.867 0h18.5c1.1953 0 1.1953-1.8164 0-1.8164h-18.5c-1.1953 0-1.1953 1.8164 0 1.8164zm16.059-37.973 3.0898-1.7852c0.43359-0.25 0.58203-0.80078 0.33203-1.2344-0.25-0.43359-0.80078-0.58203-1.2344-0.33203l-3.0898 1.7852c-1.0273 0.59375-0.125 2.1602 0.90234 1.5664zm-5.1445-6.2383 1.7852-3.0898c0.59766-1.0312-0.97266-1.9375-1.5664-0.90625l-1.7852 3.0898c-0.59375 1.0312 0.97266 1.9375 1.5664 0.90625zm-21.395 5.1367-3.0898-1.7852c-1.0312-0.59766-1.9375 0.97266-0.90625 1.5664l3.0898 1.7852c1.0312 0.59766 1.9375-0.96875 0.90625-1.5664zm5.5078-5.9531-1.7852-3.0898c-0.25-0.43359-0.80078-0.58203-1.2344-0.33203s-0.58203 0.80078-0.33203 1.2344l1.7852 3.0898c0.59375 1.0273 2.1602 0.12891 1.5664-0.90234zm8.0859-2.0586v-3.5664c0-1.1953-1.8164-1.1953-1.8164 0v3.5664c0 1.1914 1.8164 1.1914 1.8164 0zm2.4453 36.469c0.73828-0.20313 1.2578-0.90234 1.2578-1.6836v-1.4922c0.71484-0.18359 1.2539-0.8125 1.2539-1.5703 0-0.41797 0.027344-2.2109-0.03125-2.4961l-0.007813-0.44922c-0.003906-0.92969-0.015625-2.5117 2.3945-4.7812 2.4961-2.3516 3.9492-5.6445 3.9492-9.1289 0-6.207-5.4258-12.336-12.172-12.336-6.7422 0-12.168 6.1328-12.168 12.336 0 3.4883 1.4492 6.7773 3.9492 9.1289 2.4023 2.2617 2.4648 3.8555 2.5039 4.8008 0.007813 0.20313 0.015626 0.38281 0.039063 0.5625-0.007813 0.070313-0.011719 0.125-0.011719 0.16797v2.1992c0 0.75781 0.53906 1.3828 1.2578 1.5703v1.4922c0 0.78125 0.51953 1.4805 1.2539 1.6836v1.4961c0 0.94141 0.74609 1.7422 1.6914 1.7422h3.1523c0.94531 0 1.6914-0.80469 1.6914-1.7422v-1.5zm-4.7188 0.0625v1.3672h2.9062v-1.3672zm-1.2578-3.1836v1.3672h5.418v-1.3672zm-4.3594-10.668c2.3555 2.2148 2.8789 3.9805 3.0156 5.2227h8.0078c0.097656-1.2422 0.58594-3.0039 2.9414-5.2227 2.1484-2.0234 3.375-4.8086 3.375-7.8086 0-5.2383-4.6289-10.523-10.355-10.523-5.7266 0-10.355 5.2852-10.355 10.523-0.003906 3 1.2227 5.7891 3.3711 7.8086zm11.035 7.0352h-7.9297v1.8203h7.9297zm-7.9375-0.16016v0zm28.184-37.176 0.039062 11.848h11.883z" fill-rule="evenodd"/>
</svg>